<?xml version="1.0" encoding="utf-8"?>
<!-- Generator: Adobe Illustrator 21.1.0, SVG Export Plug-In . SVG Version: 6.00 Build 0)  -->
<svg version="1.1" id="Layer_1" xmlns="http://www.w3.org/2000/svg" xmlns:xlink="http://www.w3.org/1999/xlink" x="0px" y="0px"
	 viewBox="0 0 151.5 126.7" style="enable-background:new 0 0 151.5 126.7;" xml:space="preserve">
<style type="text/css">
	.st0{fill:#3781EF;}
	.st1{fill:#686868;}
	.st2{fill:#545454;}
</style>
<g>
	<g>
		<g>
			<path class="st0" d="M105.7,70.4c-4.1,24-23.9,42.2-47.7,42.2c-26.8,0-49.2-23.6-47.3-51.5c2.4-26.8,27.9-45,45.5-43.8v-2.1
				c-21.6,1.4-48,18.6-51,49C3,95.8,29.8,122.5,61.8,122.5c30,0,54.7-22.8,57.7-52.1H105.7z"/>
		</g>
		<polygon class="st1" points="146.4,69.9 56.2,69.9 56.2,4.3 55.5,4.3 55.5,69.9 36.5,69.9 36.5,70.6 55.5,70.6 55.5,87.8 
			56.2,87.8 56.2,70.6 146.4,70.6 		"/>
		<g>
			<rect x="52.9" y="67.4" class="st0" width="5.9" height="6"/>
			<path class="st1" d="M59,73.5h-6.3v-6.3H59V73.5z M53,73.2h5.6v-5.6H53V73.2z"/>
		</g>
	</g>
	<g>
		<g>
			<path class="st2" d="M87.9,43.2c-0.3,0.3-0.4,0.5-1.3,1.4c-0.9,0.9-2.3,1.8-3.3,2.4c-1,0.6-2.4,1.1-3.6,1.4
				c-1.2,0.3-2.5,0.4-3.9,0.4c-5,0-8.9-1.8-11.6-5.4c-2-2.6-3.1-5.8-3.1-9.4c0-1.7,0.2-3.4,0.7-5c0.5-1.6,1.3-3.1,2.3-4.5
				c0.7-1,1.5-1.8,2.4-2.6c0.9-0.8,1.9-1.4,3-1.9c1.1-0.5,2.2-0.9,3.3-1.2c1.2-0.3,2.4-0.4,3.6-0.4c2.2,0,4.3,0.5,6.5,1.5
				c0.8,0.4,1.1,0.5,1.2,0.4c0.4,0,0.8-0.2,1.1-0.5c0.3-0.3,0.5-0.8,0.6-1.4l0-0.1H87l0.7,10.1h-1l0-0.1c-0.4-1.4-1-2.7-1.6-3.7
				c-0.6-1-1.4-1.9-2.2-2.5c-0.8-0.6-1.7-1.1-2.7-1.4c-1-0.3-2.1-0.5-3.2-0.5c-2,0-3.7,0.5-5.2,1.4c-1.5,0.9-2.7,2.3-3.6,4.2
				c-0.5,1.1-0.9,2.3-1.1,3.6c-0.3,1.3-0.4,2.9-0.4,4.5c0,2.5,0.4,4.8,1.3,6.7c0.4,1,1,1.8,1.6,2.5c0.7,0.7,1.4,1.3,2.2,1.8
				c0.8,0.5,1.8,0.9,2.7,1.1c1,0.2,2,0.4,3.1,0.4c1.2,0,2.3-0.1,3.1-0.4c0.9-0.2,1.7-0.6,2.4-1.1c0.7-0.5,1.4-1.1,2.1-1.8
				c0.5-0.6,0.9-1,1.3-1.6L87.9,43.2z"/>
			<path class="st2" d="M144.3,25.6c-1.4-2.3-3.2-3.9-5.5-4.9c-2.3-1-5.6-1.5-9.9-1.5H117v1.1h1.3c1,0,1.8,0.3,2.3,0.9
				c0.3,0.3,0.6,1.1,0.6,3.2V43c0,1.6-0.1,2.6-0.4,3c-0.5,0.7-1.3,1.1-2.5,1.1h-0.4c-0.6,0-1.1-0.1-1.5-0.2
				c-0.4-0.1-0.8-0.3-1.1-0.6c-0.4-0.3-0.7-0.8-1-1.4c-0.3-0.6-0.7-1.4-1.1-2.4L103,18.6h-1L91.9,42.2c-0.4,1-0.9,1.9-1.3,2.6
				c-0.4,0.7-0.7,1.2-1.1,1.5c-0.3,0.3-1.1,0.6-2.2,0.8l-0.1,0v1.1h9.4v-1.1l-0.2,0c-0.7-0.1-1.3-0.1-1.7-0.2
				c-0.4-0.1-0.7-0.2-1-0.4c-0.2-0.1-0.3-0.3-0.4-0.4c-0.1-0.2-0.1-0.4-0.1-0.6c0-0.5,0.2-1.4,0.7-2.4l1.9-4.4h10.9l1.7,4
				c0.3,0.7,0.5,1.3,0.6,1.7c0.1,0.5,0.2,0.8,0.2,1.1c0,0.2,0,0.4-0.1,0.6c-0.1,0.2-0.2,0.3-0.4,0.5c-0.2,0.1-0.5,0.3-0.8,0.4
				c-0.4,0.1-0.8,0.2-1.4,0.2l-0.2,0v1.1H117h1h12c2.7,0,5-0.4,7.1-1.1c2-0.7,3.8-1.7,5.1-3c1.4-1.3,2.4-2.8,3.1-4.6
				c0.7-1.8,1-3.8,1-5.9C146.4,30.6,145.7,27.9,144.3,25.6z M141.2,33.8c0,1.9-0.3,3.7-0.9,5.2c-0.6,1.5-1.4,2.9-2.4,4
				c-1,1.1-2.2,1.9-3.6,2.5c-1.4,0.6-2.9,0.9-4.5,0.9c-1.2,0-2.7-0.2-4.4-0.6V21.8c0.8-0.2,1.5-0.3,2.2-0.4c0.7-0.1,1.4-0.2,2-0.2
				c1.7,0,3.2,0.3,4.6,0.9c1.4,0.6,2.6,1.4,3.6,2.5c1,1.1,1.8,2.4,2.4,4C140.9,30.1,141.2,31.8,141.2,33.8z M106,36.7h-9.4l4.7-11
				L106,36.7z"/>
		</g>
	</g>
</g>
<g>
	<path class="st0" d="M73,54.8c-1.1,0-1.8,0.4-1.8,1.1c0,2.4,6.5,1.1,6.5,5.4c0,2.3-2,3.6-4.6,3.6c-1.9,0-3.8-0.8-5.1-1.9l1-1.9
		c1.2,1.1,2.9,1.8,4.2,1.8c1.3,0,2.1-0.5,2.1-1.3c0-2.5-6.5-1.1-6.5-5.4c0-2.1,1.8-3.4,4.5-3.4c1.6,0,3.2,0.5,4.4,1.3l-0.9,2
		C75.3,55.2,73.9,54.8,73,54.8z"/>
	<path class="st0" d="M91.8,52.8v2.1H88v10h-2.3v-10h-3.8v-2.1H91.8z"/>
	<path class="st0" d="M108.1,58.9c0,3.5-2.8,6.1-6.4,6.1c-3.6,0-6.4-2.7-6.4-6.1c0-3.5,2.8-6.1,6.4-6.1
		C105.3,52.8,108.1,55.4,108.1,58.9z M97.6,58.9c0,2.3,1.9,4.1,4.1,4.1c2.2,0,4-1.8,4-4.1c0-2.3-1.8-4-4-4
		C99.4,54.8,97.6,56.6,97.6,58.9z"/>
	<path class="st0" d="M121.1,64.9l-2.1-3.6c-0.1,0-0.3,0-0.4,0h-2.7v3.6h-2.3V52.8h5c3.1,0,4.9,1.5,4.9,4.2c0,1.9-0.8,3.3-2.4,3.9
		l2.7,4H121.1z M115.9,59.3h2.7c1.7,0,2.7-0.7,2.7-2.3c0-1.5-1-2.2-2.7-2.2h-2.7V59.3z"/>
	<path class="st0" d="M138.3,52.8v2h-6.5v3h5.9v2h-5.9v3h6.7v2h-9.1V52.8H138.3z"/>
</g>
</svg>
