<?xml version="1.0" standalone="no"?>
<!DOCTYPE svg PUBLIC "-//W3C//DTD SVG 20010904//EN"
 "http://www.w3.org/TR/2001/REC-SVG-20010904/DTD/svg10.dtd">
<svg version="1.0" xmlns="http://www.w3.org/2000/svg"
 width="992.000000pt" height="992.000000pt" viewBox="0 0 992.000000 992.000000"
 preserveAspectRatio="xMidYMid meet">
<metadata>
Created by potrace 1.11, written by Peter Selinger 2001-2013
</metadata>
<g transform="translate(0.000000,992.000000) scale(0.100000,-0.100000)"
fill="#000000" stroke="none">
<path d="M4971 9904 c-29 -8 -76 -25 -102 -39 -27 -13 -49 -21 -49 -17 0 4 -4
2 -8 -4 -4 -5 -56 -39 -117 -73 -60 -35 -125 -72 -142 -82 -18 -11 -48 -27
-65 -38 -18 -10 -73 -42 -123 -71 -49 -29 -108 -62 -130 -75 -22 -12 -80 -46
-130 -75 -49 -29 -108 -62 -130 -75 -22 -12 -107 -61 -188 -109 -82 -47 -153
-86 -158 -86 -5 0 -9 -5 -9 -11 0 -5 -4 -8 -9 -4 -6 3 -13 0 -18 -7 -4 -7 -28
-23 -53 -36 -25 -13 -58 -32 -75 -42 -16 -10 -41 -25 -55 -33 -23 -12 -107
-61 -595 -342 -93 -54 -173 -102 -176 -107 -3 -6 -9 -9 -13 -9 -7 2 -69 -29
-76 -38 -3 -3 -19 -13 -35 -22 -17 -8 -101 -57 -188 -107 -88 -51 -161 -92
-165 -92 -3 0 -13 -6 -21 -14 -9 -7 -47 -31 -86 -51 -38 -21 -71 -42 -73 -47
-2 -4 -8 -8 -12 -8 -5 0 -48 -22 -96 -50 -48 -27 -91 -50 -95 -50 -5 0 -9 -4
-9 -8 0 -7 -43 -33 -60 -37 -4 0 -212 -120 -270 -155 -8 -5 -38 -23 -66 -39
-160 -93 -198 -298 -78 -428 28 -31 242 -163 263 -163 6 0 11 -4 11 -9 0 -5
10 -13 23 -17 12 -4 24 -9 27 -13 5 -6 35 -23 100 -58 19 -10 37 -20 40 -23 3
-3 19 -12 35 -20 17 -8 32 -17 35 -20 3 -3 25 -16 50 -29 25 -13 52 -30 61
-37 8 -8 23 -14 31 -14 9 0 18 -4 20 -10 2 -5 26 -22 55 -37 29 -16 89 -49
135 -74 148 -83 243 -102 373 -71 39 9 73 15 78 14 4 -1 7 3 7 8 0 6 9 10 20
10 11 0 20 5 20 10 0 6 4 10 10 10 5 0 43 20 83 45 41 25 77 45 81 45 3 0 29
15 58 33 29 19 74 46 101 60 123 69 144 82 179 104 21 12 42 23 47 23 5 0 16
6 23 13 12 11 208 126 233 136 5 2 12 7 15 10 3 3 14 11 25 17 112 61 188 105
230 132 11 6 27 15 35 19 8 4 38 20 65 36 157 93 288 167 296 167 5 0 9 4 9 8
0 4 12 13 28 20 15 6 43 21 62 33 19 11 53 31 75 42 22 12 42 24 45 27 6 6 44
28 90 52 39 20 72 40 80 48 3 3 25 16 50 29 25 13 78 44 117 68 40 23 77 43
83 43 5 0 10 5 10 10 0 6 6 10 13 10 6 0 24 6 39 14 156 82 403 80 569 -4 57
-29 272 -152 279 -159 3 -3 34 -21 70 -40 36 -19 72 -40 81 -47 8 -8 20 -14
25 -14 6 0 20 -9 32 -20 12 -11 25 -21 29 -22 24 -4 73 -30 73 -38 0 -6 6 -10
14 -10 8 0 51 -22 95 -50 44 -27 83 -50 86 -50 3 0 39 -20 79 -45 41 -25 79
-45 85 -45 6 0 11 -4 11 -9 0 -5 8 -11 18 -14 17 -6 93 -48 102 -57 5 -5 24
-16 99 -58 25 -13 93 -52 151 -86 57 -33 112 -65 122 -71 9 -5 41 -23 70 -39
29 -16 77 -44 106 -62 29 -19 54 -34 56 -34 3 0 20 -10 406 -233 260 -150 284
-163 361 -188 166 -55 344 -38 514 48 39 19 72 38 75 42 3 4 21 15 40 25 19
10 53 28 75 42 22 13 49 28 60 34 11 6 43 24 70 40 28 17 57 34 65 37 8 4 17
9 20 12 3 4 23 15 45 26 22 11 42 22 45 25 8 9 152 90 159 90 4 0 31 24 62 53
158 149 155 384 -8 526 -26 23 -58 44 -70 47 -13 4 -23 9 -23 13 0 3 -26 20
-58 36 -31 17 -59 32 -62 35 -6 6 -42 26 -85 49 -16 9 -32 18 -35 21 -3 3 -14
10 -25 16 -73 40 -121 67 -130 74 -11 8 -92 54 -144 81 -18 10 -42 26 -52 35
-11 9 -19 14 -19 10 0 -4 -12 1 -27 12 -16 11 -89 54 -163 97 -74 43 -151 87
-170 98 -19 11 -55 31 -80 45 -25 13 -49 28 -55 32 -8 6 -159 93 -312 181 -47
27 -81 47 -223 129 -69 40 -145 84 -170 98 -25 14 -58 33 -75 43 -16 10 -50
30 -75 44 -25 14 -63 36 -85 50 -22 13 -64 36 -92 51 -29 15 -53 31 -53 36 0
4 -6 8 -14 8 -7 0 -25 9 -38 20 -14 10 -28 17 -30 14 -3 -2 -11 2 -18 11 -7 8
-16 15 -21 15 -5 0 -28 12 -52 27 -23 14 -44 25 -46 24 -2 -2 -7 1 -10 6 -3 5
-53 35 -111 67 -58 33 -113 66 -122 74 -10 8 -18 11 -18 7 0 -4 -8 -1 -17 7
-28 23 -143 88 -143 80 0 -4 -4 -2 -8 3 -9 13 -48 38 -121 77 -31 17 -62 35
-69 41 -19 15 -95 57 -114 64 -10 3 -18 9 -18 14 0 5 -4 9 -9 9 -8 0 -102 53
-291 163 -57 33 -180 96 -180 92 0 -2 -17 3 -37 12 -53 23 -287 27 -362 7z"/>
<path d="M825 7018 c-45 -16 -87 -56 -107 -101 -17 -38 -18 -138 -15 -2216 1
-1197 5 -2185 9 -2196 16 -50 43 -112 60 -137 10 -14 18 -29 18 -33 0 -11 90
-98 130 -126 39 -27 61 -40 105 -64 17 -8 39 -21 50 -28 84 -51 186 -107 195
-107 5 0 10 -4 10 -10 0 -5 7 -10 15 -10 8 0 15 -4 15 -10 0 -5 5 -10 11 -10
6 0 48 -22 95 -50 47 -27 87 -50 90 -50 3 0 18 -9 33 -19 15 -11 54 -34 86
-52 33 -17 67 -38 76 -45 9 -8 19 -11 22 -7 4 3 7 1 7 -5 0 -7 7 -12 15 -12 8
0 15 -4 15 -10 0 -5 5 -10 11 -10 9 0 92 -47 229 -129 19 -11 42 -24 50 -28 8
-3 31 -16 50 -28 19 -12 58 -34 85 -50 28 -15 107 -60 177 -101 69 -41 131
-74 137 -74 6 0 11 -3 11 -8 0 -4 21 -18 48 -32 26 -13 71 -39 100 -57 29 -18
55 -33 57 -33 3 0 24 -12 48 -27 23 -15 60 -37 82 -49 62 -33 89 -48 95 -54 3
-3 16 -11 30 -18 14 -7 42 -22 62 -35 21 -12 61 -35 90 -51 29 -16 65 -37 80
-47 14 -11 29 -19 32 -19 5 0 48 -25 131 -75 11 -7 23 -12 26 -11 4 1 15 -6
25 -15 11 -9 62 -40 114 -70 52 -30 103 -58 112 -64 9 -5 29 -17 45 -26 85
-47 130 -74 171 -99 26 -16 65 -39 87 -50 22 -11 58 -32 80 -46 22 -13 54 -31
71 -39 17 -8 36 -21 43 -29 7 -9 17 -14 21 -11 5 3 12 0 15 -5 4 -6 17 -15 28
-20 12 -5 45 -23 72 -40 28 -17 58 -33 68 -37 9 -3 17 -9 17 -13 0 -4 11 -11
24 -14 14 -3 31 -12 38 -19 7 -6 27 -19 43 -27 17 -8 32 -17 35 -20 3 -3 25
-16 50 -29 25 -14 48 -29 52 -35 4 -6 8 -8 8 -3 0 4 17 -3 38 -16 66 -41 105
-52 182 -52 57 1 88 6 128 24 28 13 52 27 52 31 0 3 10 12 23 19 37 20 86 104
101 173 17 82 15 938 -3 1008 -6 25 -13 52 -16 62 -5 24 -62 135 -87 171 -21
32 -106 119 -143 147 -23 18 -71 47 -135 82 -25 14 -85 48 -133 77 -49 28 -92
51 -97 51 -5 0 -10 4 -12 8 -3 7 -42 31 -168 100 -25 14 -49 28 -55 32 -19 16
-208 120 -215 120 -5 0 -10 3 -12 8 -1 4 -93 58 -203 121 -110 63 -208 121
-219 130 -10 9 -21 15 -25 14 -3 0 -32 14 -64 33 -32 19 -62 34 -67 34 -4 0
-10 4 -12 8 -1 4 -50 34 -108 67 -58 33 -114 65 -125 72 -11 7 -33 19 -50 28
-16 8 -70 40 -120 69 -49 30 -118 69 -152 88 -35 18 -63 36 -63 40 0 5 -4 8
-9 8 -6 0 -38 17 -73 37 -35 21 -65 38 -68 38 -3 0 -16 8 -30 17 -14 8 -59 35
-100 58 -132 76 -201 136 -265 233 -37 56 -85 165 -91 209 -2 16 -6 43 -9 61
-3 17 -6 625 -6 1349 -1 1425 1 1359 -54 1455 -29 49 -89 111 -121 124 -11 5
-153 85 -174 99 -40 27 -213 120 -221 120 -5 0 -9 5 -9 10 0 6 -5 10 -10 10
-6 0 -27 11 -48 23 -33 21 -93 55 -187 106 -16 9 -32 18 -35 22 -7 7 -250 144
-338 191 -77 40 -120 46 -177 26z"/>
<path d="M5286 5563 c-1 -2 -25 -5 -52 -7 -76 -7 -171 -41 -269 -97 -49 -28
-100 -55 -112 -60 -13 -5 -23 -13 -23 -19 0 -5 -4 -10 -10 -10 -8 0 -264 -144
-448 -253 -26 -15 -56 -32 -67 -37 -11 -6 -38 -22 -60 -35 -22 -14 -52 -30
-67 -36 -16 -6 -28 -14 -28 -18 0 -4 -22 -18 -50 -31 -27 -13 -50 -28 -50 -33
0 -6 -3 -8 -6 -4 -4 3 -23 -5 -43 -18 -19 -14 -41 -25 -48 -25 -7 0 -13 -4
-13 -9 0 -5 -8 -11 -17 -14 -10 -4 -38 -18 -63 -33 -176 -104 -282 -164 -290
-164 -4 0 -10 -3 -12 -8 -3 -8 -263 -159 -310 -180 -15 -6 -28 -17 -28 -23 0
-5 -4 -8 -9 -4 -5 3 -15 0 -23 -7 -7 -7 -26 -20 -43 -28 -16 -8 -46 -25 -65
-38 -19 -13 -51 -31 -70 -40 -19 -9 -37 -19 -40 -22 -3 -4 -26 -18 -51 -32
-99 -55 -121 -70 -148 -102 -9 -10 -22 -24 -29 -32 -7 -7 -27 -41 -44 -76 -29
-58 -32 -71 -32 -163 -1 -93 2 -105 31 -166 32 -64 100 -149 121 -149 6 0 12
-4 14 -8 1 -5 53 -37 113 -72 61 -34 124 -70 140 -80 17 -9 86 -49 154 -89 68
-39 127 -71 132 -71 5 0 9 -4 9 -10 0 -5 4 -10 10 -10 5 0 33 -14 62 -31 73
-44 114 -67 178 -102 30 -16 62 -36 71 -43 8 -8 21 -14 27 -14 6 0 17 -6 24
-13 7 -7 24 -18 38 -24 14 -7 48 -26 75 -43 28 -16 57 -33 65 -37 8 -3 17 -9
20 -12 3 -4 16 -12 30 -18 14 -7 48 -26 75 -43 28 -16 57 -33 65 -37 8 -3 32
-17 53 -31 22 -13 60 -35 85 -49 26 -14 89 -50 139 -80 51 -30 95 -53 99 -53
4 1 10 -3 13 -8 3 -5 22 -17 41 -27 19 -9 43 -24 53 -33 9 -8 17 -11 17 -7 0
4 8 1 18 -7 9 -8 42 -28 72 -44 30 -16 57 -31 60 -35 3 -3 36 -23 75 -45 38
-21 90 -51 115 -66 25 -15 52 -31 60 -34 8 -3 31 -13 50 -22 112 -50 281 -62
406 -30 88 22 125 39 289 135 66 38 136 78 155 89 19 10 37 21 40 24 3 3 14
10 25 16 103 56 144 80 167 95 14 11 30 19 36 19 5 0 15 7 22 15 7 8 16 13 20
10 4 -3 13 2 20 10 7 8 18 15 25 15 8 0 15 3 17 8 4 9 235 142 248 142 6 0 10
4 10 9 0 5 8 11 18 14 17 6 73 37 82 47 3 3 16 11 30 18 14 6 32 16 40 21 8 6
101 59 205 119 105 61 332 192 505 292 173 101 335 194 360 208 137 77 184
119 225 207 23 48 28 216 7 237 -7 7 -12 18 -12 25 0 18 -38 71 -74 102 -15
13 -34 30 -40 36 -7 7 -22 15 -34 19 -12 4 -28 13 -35 19 -12 12 -40 28 -107
64 -19 10 -37 20 -40 23 -3 3 -16 11 -29 18 -61 35 -90 51 -139 81 -29 17 -57
31 -62 31 -6 0 -10 4 -10 8 0 4 -12 13 -27 19 -29 12 -104 54 -113 63 -3 3
-18 12 -35 20 -16 8 -32 17 -35 20 -3 3 -63 39 -135 80 -71 40 -133 79 -137
84 -4 6 -8 7 -8 2 0 -5 -6 -4 -12 2 -7 6 -40 26 -73 45 -33 18 -116 67 -185
107 -155 90 -171 99 -245 141 -33 18 -61 37 -63 41 -2 4 -7 8 -12 8 -4 0 -91
48 -192 106 -100 59 -208 120 -238 137 -30 16 -62 35 -70 41 -8 7 -28 18 -45
26 -16 8 -32 17 -35 20 -5 5 -19 13 -89 52 -99 55 -173 87 -216 93 -11 2 -33
6 -50 10 -31 6 -135 12 -139 8z"/>
</g>
</svg>
