<svg id="Layer_1" data-name="Layer 1" xmlns="http://www.w3.org/2000/svg" width="317.48" height="53.93" viewBox="0 0 317.48 53.93">
  <g>
    <path d="M0,34.2C0,22.68,8.25,14.55,19.87,14.55c7.15,0,12.86,3.09,15.67,8.92l-6.59,4a10.29,10.29,0,0,0-9.15-5.33c-6.32,0-11.13,4.61-11.13,12s4.81,12,11.13,12A10.29,10.29,0,0,0,29,40.81l6.59,4c-2.81,5.76-8.52,9-15.67,9C8.25,53.93,0,45.72,0,34.2Z" transform="translate(0 0)" style="fill: #3781ef"/>
    <path d="M73.69,30.89V53.43H65.58V48.75c-2.06,3.31-6,5.18-11.55,5.18-8.38,0-13.72-4.82-13.72-11.52C40.31,36,44.48,31,55.61,31H65.1v-.57c0-5.26-3-8.36-9.14-8.36a17.66,17.66,0,0,0-11.14,3.82L41.45,19.3c3.92-3.17,9.63-4.75,15.54-4.75C67.58,14.55,73.69,19.8,73.69,30.89ZM65.1,41.4V36.94H56.23c-5.84,0-7.42,2.3-7.42,5.11,0,3.24,2.61,5.33,7,5.33C60,47.38,63.66,45.36,65.1,41.4Z" transform="translate(0 0)" style="fill: #3781ef"/>
    <path d="M121,0V53.43h-8.25v-5c-2.89,3.67-7.15,5.47-12.17,5.47C89.91,53.93,82,46.16,82,34.2s7.9-19.65,18.56-19.65c4.74,0,8.94,1.65,11.82,5.18V0Zm-8.46,34.2c0-7.34-4.74-12-10.93-12s-10.93,4.68-10.93,12,4.74,12,10.93,12S112.53,41.55,112.53,34.2Z" transform="translate(0 0)" style="fill: #3781ef"/>
  </g>
  <g>
    <path d="M187.22,31.47v22h-4.91V32c0-8-3.85-12.1-10.38-12.1-7.42,0-12.1,5-12.1,13.68V53.43H155V32c0-8-3.85-12.1-10.45-12.1-7.35,0-12.1,5-12.1,13.68V53.43h-4.88V15.55h4.68v6.92c2.54-4.54,7.22-7.2,13.26-7.2s10.66,2.66,12.86,8c2.61-4.9,7.77-8,14.3-8C181.45,15.27,187.22,20.59,187.22,31.47Z" transform="translate(0 0)" style="fill: #fff"/>
    <path d="M199.38,3.6A3.61,3.61,0,0,1,203,0a3.53,3.53,0,0,1,3.57,3.51v0a3.58,3.58,0,0,1-7.15.44C199.38,3.85,199.37,3.72,199.38,3.6Zm1.1,12h4.88V53.43h-4.88Z" transform="translate(0 0)" style="fill: #fff"/>
    <path d="M215.31,34.49c0-11.3,7.84-19.22,18.63-19.22,6.12,0,11.28,2.52,14.16,7.48l-3.64,2.6a12.12,12.12,0,0,0-10.52-5.62c-7.9,0-13.68,5.9-13.68,14.76S226,49.25,233.94,49.25a12.05,12.05,0,0,0,10.52-5.54l3.64,2.59c-2.88,4.9-8,7.49-14.16,7.49C223.17,53.79,215.31,45.8,215.31,34.49Z" transform="translate(0 0)" style="fill: #fff"/>
    <path d="M275.89,15.27v5c-.41,0-.82-.07-1.17-.07-7.56,0-12.16,5-12.16,14V53.5h-4.89V15.55h4.64V23C264.62,17.93,269.22,15.27,275.89,15.27Z" transform="translate(0 0)" style="fill: #fff"/>
    <path d="M280.7,34.49c0-11.23,7.84-19.22,18.43-19.22s18.35,8,18.35,19.22-7.77,19.3-18.35,19.3S280.7,45.72,280.7,34.49Zm31.83,0c0-8.86-5.7-14.76-13.4-14.76s-13.48,5.9-13.48,14.76,5.78,14.76,13.48,14.76S312.53,43.35,312.53,34.49Z" transform="translate(0 0)" style="fill: #fff"/>
  </g>
</svg>
