<?xml version="1.0" encoding="utf-8"?>
<!-- Generator: Adobe Illustrator 24.0.2, SVG Export Plug-In . SVG Version: 6.00 Build 0)  -->
<svg version="1.2" baseProfile="tiny" id="Layer_1" xmlns="http://www.w3.org/2000/svg" xmlns:xlink="http://www.w3.org/1999/xlink"
	 x="0px" y="0px" viewBox="0 0 120.65 120.65" xml:space="preserve">
<path fill="#CECECE" d="M106.58,53.35l3.53,0.88c0.47,0.12,0.96,0.06,1.39-0.15l8.04-4.02c0.94-0.47,1.36-1.57,0.97-2.55l-4.8-12.01
	l0.92-9.16c0.04-0.38-0.03-0.76-0.2-1.1l-4.02-8.04c-0.3-0.59-0.86-1-1.51-1.09L96.81,14.1c-0.18-0.03-0.36-0.03-0.53,0l-13.83,1.73
	v-6.8c0-4.98-4.04-9.02-9.02-9.02c-3.88,0-7.33,2.48-8.56,6.17L64.6,6.96l-3.69,3.69c-0.79,0.79-0.79,2.06,0,2.84
	c0.38,0.38,0.89,0.59,1.42,0.59h4.02v4.02c0,1.28,0.31,2.55,0.9,3.69l-10.06,6.7c-0.29,0.19-0.53,0.46-0.68,0.77l-8.04,16.09
	c-0.17,0.33-0.24,0.71-0.2,1.08l1.96,21.53l-3.61,1.95l-4.97-4.97c-0.64-0.64-1.63-0.77-2.42-0.32l-3.37,1.92
	c-7.33,4.17-12.73,11.06-15.03,19.17l-0.5,1.75c-1.16,0.06-2.32,0.28-3.42,0.64l-3.16,1.05c-2.26,0.76-4.72,0.58-6.85-0.49
	l-3.97-1.99c-0.99-0.5-2.2-0.09-2.7,0.9C0.07,87.86,0,88.17,0,88.48v30.16c0,1.11,0.9,2.01,2.01,2.01H74.4c0.9,0,1.69-0.6,1.93-1.46
	l7.96-27.85l3.8-5.7l2.5,7.49c0.07,0.21,0.18,0.41,0.31,0.59l20.11,26.14c0.38,0.49,0.97,0.78,1.59,0.78h6.03
	c1.11,0,2.01-0.9,2.01-2.01c0-0.26-0.05-0.52-0.15-0.77l-13.92-33.82V53.35z M116.09,47.29l-5.72,2.86l-7.32-1.83
	c-0.51-0.13-1.04-0.05-1.49,0.21l-6.11,3.53l-1.9-2.85l5.95-3.2c0.45-0.24,0.79-0.65,0.95-1.13l1.79-5.38l1.46-0.97l0.88,7.95
	c0.11,1.02,0.97,1.79,2,1.79h6.03c1.03,0,1.9-0.78,2-1.81l0.23-2.28L116.09,47.29z M56.58,74.48l-2.11-4.22l35.52-19.12l1.96,2.94
	L56.58,74.48z M64.09,49.63l5.52-2.76l4.83,8.05l-13.1,7.05L64.09,49.63z M69.97,24.81c3.7,2.45,8.69,1.43,11.14-2.27
	c0.53-0.81,0.92-1.7,1.13-2.64l2.22-0.28v9.18l-7.56,3.02l-6.98-6.98L69.97,24.81z M74.99,35.61c0.57,0.57,1.42,0.74,2.17,0.45
	l10.05-4.02c0.76-0.31,1.26-1.04,1.26-1.87V19.12l1.33-0.17l6.84,11.97l1.8,7.21l-1.57,4.72L77.99,53.02l-5.85-9.75l-7.47-14.93
	l1.83-1.22L74.99,35.61z M100.94,31.48l1.91-0.64l0.35,3.18l-1.39,0.93L100.94,31.48z M112.56,26.52l-1.77,17.72h-2.41l-1.74-15.63
	l3.8-6.33L112.56,26.52z M96.5,18.12l10.81,1.54l-4.09,6.82l-3.76,1.25l-5.33-9.32L96.5,18.12z M67.78,9.47
	c0.22-0.22,0.39-0.49,0.49-0.79l0.41-1.24c0.87-2.62,3.71-4.04,6.33-3.16c2.04,0.68,3.42,2.59,3.42,4.74v1.03H67.19L67.78,9.47z
	 M78.42,14.08v4.02c0,2.22-1.8,4.02-4.02,4.02c-2.22,0-4.02-1.8-4.02-4.02v-4.02H78.42z M59.88,31.54l1.43-0.95l6.38,12.75
	l-5.26,2.63l-7.51-4.51L59.88,31.54z M52.33,46.64l0.78-1.57l6.95,4.17L56.67,64.5l-2.59,1.4L52.33,46.64z M24.69,86.81
	c2.01-7.11,6.74-13.14,13.16-16.79l2.03-1.16l4.95,4.95c0.63,0.63,1.59,0.77,2.38,0.35l3.72-2l2.16,4.33l-3.82,2.2
	c-0.78,0.45-1.16,1.36-0.95,2.23l1.62,6.48l-0.14,0.07c-7.96,3.99-17.34,3.99-25.3,0L24.69,86.81z M4.02,116.63v-24.9l1.06,0.53
	c3.08,1.55,6.65,1.8,9.92,0.71l3.16-1.05c2.39-0.79,5-0.55,7.2,0.67l11.3,6.28c1.38,0.77,2.53,1.88,3.34,3.23l0.77,1.28
	c2.69,4.49,7.81,6.93,12.98,6.18c3.42-0.48,6.81,1.04,8.74,3.91l2.12,3.18H4.02z M53.19,105.57c-3.58,0.52-7.11-1.17-8.97-4.27
	l-0.77-1.28c-1.17-1.95-2.84-3.57-4.83-4.67l-1.54-0.86c0.02,0,0.05,0,0.07,0c5.02,0,9.96-1.17,14.45-3.42l1.59-0.79
	c0.84-0.42,1.28-1.37,1.05-2.29l-1.64-6.57l22.13-12.77l-6.23,17.13c-0.07,0.18-0.11,0.37-0.12,0.56l-1.64,26.22l-0.89-1.34
	C63.05,107.07,58.14,104.87,53.19,105.57z M80.77,89.37c-0.12,0.17-0.2,0.36-0.26,0.56l-7.63,26.69h-2.38l1.86-29.75l7.77-21.35
	l22.42-12.93v12.63l-9.08,5.45c-0.26,0.15-0.47,0.36-0.64,0.61L80.77,89.37z M115.64,116.63h-2.04L94.3,91.54L90.92,81.4l5.01-7.52
	l6.62-3.97v14.55c0,0.26,0.05,0.52,0.15,0.77L115.64,116.63z"/>
</svg>
