<svg id="Layer_1" data-name="Layer 1" xmlns="http://www.w3.org/2000/svg" width="333.46" height="53.93" viewBox="0 0 333.46 53.93">
  <g>
    <path d="M0,34.2C0,22.68,8.64,14.55,20.81,14.55c7.49,0,13.46,3.09,16.42,8.92l-6.92,4a10.86,10.86,0,0,0-9.57-5.33c-6.63,0-11.67,4.61-11.67,12s5,12,11.67,12a10.88,10.88,0,0,0,9.57-5.33l6.92,4c-3,5.76-8.93,9-16.42,9C8.64,53.93,0,45.72,0,34.2Z" style="fill: #3781ef"/>
    <path d="M77.19,30.89V53.43h-8.5V48.75c-2.16,3.31-6.34,5.18-12.1,5.18-8.78,0-14.33-4.82-14.33-11.52C42.26,36,46.58,31,58.25,31h9.94v-.57C68.19,25.13,65,22,58.61,22a19,19,0,0,0-11.67,3.82L43.42,19.3c4.1-3.17,10.08-4.75,16.27-4.75C70.78,14.55,77.19,19.8,77.19,30.89Zm-9,10.51V36.94H58.9c-6.12,0-7.78,2.3-7.78,5.11,0,3.24,2.74,5.33,7.34,5.33C62.86,47.38,66.67,45.36,68.19,41.4Z" style="fill: #3781ef"/>
    <path d="M126.72,0V53.43h-8.64v-5c-3,3.67-7.49,5.47-12.74,5.47-11.16,0-19.45-7.77-19.45-19.73s8.29-19.65,19.45-19.65c5,0,9.36,1.65,12.38,5.18V0Zm-8.85,34.2c0-7.34-5-12-11.45-12S95,26.86,95,34.2s5,12,11.45,12S117.87,41.55,117.87,34.2Z" style="fill: #3781ef"/>
  </g>
  <g>
    <path d="M197,31.47v22h-5.11V32c0-8-4-12.1-10.88-12.1-7.77,0-12.67,5-12.67,13.68V53.43h-5.11V32c0-8-4-12.1-10.95-12.1-7.7,0-12.67,5-12.67,13.68V53.43h-5.11V15.55h4.89v6.92c2.67-4.54,7.57-7.2,13.9-7.2s11.16,2.66,13.47,8c2.73-4.9,8.13-8,15-8C191,15.27,197,20.59,197,31.47Z" style="fill: #2b2b2b"/>
    <path d="M209.76,3.6A3.69,3.69,0,0,1,213.5,0a3.63,3.63,0,0,1,3.75,3.53,3.75,3.75,0,0,1-7.49.07Zm1.15,12H216V53.43h-5.11Z" style="fill: #2b2b2b"/>
    <path d="M226.46,34.49c0-11.3,8.21-19.22,19.51-19.22,6.41,0,11.81,2.52,14.84,7.48L257,25.35a12.86,12.86,0,0,0-11-5.62c-8.28,0-14.32,5.9-14.32,14.76s6,14.76,14.32,14.76a12.82,12.82,0,0,0,11-5.54l3.82,2.59c-3,4.9-8.43,7.49-14.84,7.49C234.67,53.79,226.46,45.8,226.46,34.49Z" style="fill: #2b2b2b"/>
    <path d="M289.89,15.27v5c-.43,0-.86-.07-1.22-.07-7.92,0-12.75,5-12.75,14v19.3h-5.11V15.55h4.9V23C278.08,17.93,282.91,15.27,289.89,15.27Z" style="fill: #2b2b2b"/>
    <path d="M294.93,34.49c0-11.23,8.21-19.22,19.3-19.22s19.23,8,19.23,19.22-8.14,19.3-19.23,19.3S294.93,45.72,294.93,34.49Zm33.34,0c0-8.86-6-14.76-14-14.76s-14.11,5.9-14.11,14.76,6,14.76,14.11,14.76S328.27,43.35,328.27,34.49Z" style="fill: #2b2b2b"/>
  </g>
</svg>
